<mxfile host="app.diagrams.net" modified="2024-01-23T07:56:57.320Z" agent="Mozilla/5.0 (Macintosh; Intel Mac OS X 10_15_7) AppleWebKit/537.36 (KHTML, like Gecko) Chrome/120.0.0.0 Safari/537.36" etag="BI_K9257BB1KjYzQ2Bzi" version="22.1.21" type="github">
  <diagram id="C5RBs43oDa-KdzZeNtuy" name="Page-1">
    <mxGraphModel dx="1674" dy="786" grid="1" gridSize="10" guides="1" tooltips="1" connect="1" arrows="1" fold="1" page="1" pageScale="1" pageWidth="827" pageHeight="1169" math="0" shadow="0">
      <root>
        <mxCell id="WIyWlLk6GJQsqaUBKTNV-0" />
        <mxCell id="WIyWlLk6GJQsqaUBKTNV-1" parent="WIyWlLk6GJQsqaUBKTNV-0" />
        <mxCell id="l8MkeI-6gAC6tX0D0pkb-8" value="" style="edgeStyle=orthogonalEdgeStyle;rounded=0;orthogonalLoop=1;jettySize=auto;html=1;" edge="1" parent="WIyWlLk6GJQsqaUBKTNV-1" source="l8MkeI-6gAC6tX0D0pkb-0" target="l8MkeI-6gAC6tX0D0pkb-4">
          <mxGeometry relative="1" as="geometry" />
        </mxCell>
        <mxCell id="l8MkeI-6gAC6tX0D0pkb-0" value="XhsApplication" style="swimlane;fontStyle=1;align=center;verticalAlign=top;childLayout=stackLayout;horizontal=1;startSize=26;horizontalStack=0;resizeParent=1;resizeParentMax=0;resizeLast=0;collapsible=1;marginBottom=0;whiteSpace=wrap;html=1;" vertex="1" parent="WIyWlLk6GJQsqaUBKTNV-1">
          <mxGeometry x="50" y="200" width="160" height="60" as="geometry" />
        </mxCell>
        <mxCell id="l8MkeI-6gAC6tX0D0pkb-2" value="" style="line;strokeWidth=1;fillColor=none;align=left;verticalAlign=middle;spacingTop=-1;spacingLeft=3;spacingRight=3;rotatable=0;labelPosition=right;points=[];portConstraint=eastwest;strokeColor=inherit;" vertex="1" parent="l8MkeI-6gAC6tX0D0pkb-0">
          <mxGeometry y="26" width="160" height="8" as="geometry" />
        </mxCell>
        <mxCell id="l8MkeI-6gAC6tX0D0pkb-3" value="# attachBaseContext()" style="text;strokeColor=none;fillColor=none;align=left;verticalAlign=top;spacingLeft=4;spacingRight=4;overflow=hidden;rotatable=0;points=[[0,0.5],[1,0.5]];portConstraint=eastwest;whiteSpace=wrap;html=1;" vertex="1" parent="l8MkeI-6gAC6tX0D0pkb-0">
          <mxGeometry y="34" width="160" height="26" as="geometry" />
        </mxCell>
        <mxCell id="l8MkeI-6gAC6tX0D0pkb-13" value="" style="edgeStyle=orthogonalEdgeStyle;rounded=0;orthogonalLoop=1;jettySize=auto;html=1;" edge="1" parent="WIyWlLk6GJQsqaUBKTNV-1" source="l8MkeI-6gAC6tX0D0pkb-4" target="l8MkeI-6gAC6tX0D0pkb-9">
          <mxGeometry relative="1" as="geometry" />
        </mxCell>
        <mxCell id="l8MkeI-6gAC6tX0D0pkb-15" value="attachSystemExp==true" style="edgeLabel;html=1;align=center;verticalAlign=middle;resizable=0;points=[];" vertex="1" connectable="0" parent="l8MkeI-6gAC6tX0D0pkb-13">
          <mxGeometry x="-0.1333" y="4" relative="1" as="geometry">
            <mxPoint as="offset" />
          </mxGeometry>
        </mxCell>
        <mxCell id="l8MkeI-6gAC6tX0D0pkb-19" value="" style="edgeStyle=orthogonalEdgeStyle;rounded=0;orthogonalLoop=1;jettySize=auto;html=1;" edge="1" parent="WIyWlLk6GJQsqaUBKTNV-1" source="l8MkeI-6gAC6tX0D0pkb-4" target="l8MkeI-6gAC6tX0D0pkb-16">
          <mxGeometry relative="1" as="geometry" />
        </mxCell>
        <mxCell id="l8MkeI-6gAC6tX0D0pkb-4" value="XhsApplication" style="swimlane;fontStyle=1;align=center;verticalAlign=top;childLayout=stackLayout;horizontal=1;startSize=26;horizontalStack=0;resizeParent=1;resizeParentMax=0;resizeLast=0;collapsible=1;marginBottom=0;whiteSpace=wrap;html=1;" vertex="1" parent="WIyWlLk6GJQsqaUBKTNV-1">
          <mxGeometry x="290" y="200" width="160" height="60" as="geometry" />
        </mxCell>
        <mxCell id="l8MkeI-6gAC6tX0D0pkb-6" value="" style="line;strokeWidth=1;fillColor=none;align=left;verticalAlign=middle;spacingTop=-1;spacingLeft=3;spacingRight=3;rotatable=0;labelPosition=right;points=[];portConstraint=eastwest;strokeColor=inherit;" vertex="1" parent="l8MkeI-6gAC6tX0D0pkb-4">
          <mxGeometry y="26" width="160" height="8" as="geometry" />
        </mxCell>
        <mxCell id="l8MkeI-6gAC6tX0D0pkb-7" value="#attachBaseContextProxy()" style="text;strokeColor=none;fillColor=none;align=left;verticalAlign=top;spacingLeft=4;spacingRight=4;overflow=hidden;rotatable=0;points=[[0,0.5],[1,0.5]];portConstraint=eastwest;whiteSpace=wrap;html=1;" vertex="1" parent="l8MkeI-6gAC6tX0D0pkb-4">
          <mxGeometry y="34" width="160" height="26" as="geometry" />
        </mxCell>
        <mxCell id="l8MkeI-6gAC6tX0D0pkb-28" value="" style="edgeStyle=orthogonalEdgeStyle;rounded=0;orthogonalLoop=1;jettySize=auto;html=1;" edge="1" parent="WIyWlLk6GJQsqaUBKTNV-1" source="l8MkeI-6gAC6tX0D0pkb-9" target="l8MkeI-6gAC6tX0D0pkb-25">
          <mxGeometry relative="1" as="geometry" />
        </mxCell>
        <mxCell id="l8MkeI-6gAC6tX0D0pkb-9" value="XhsApplication" style="swimlane;fontStyle=1;align=center;verticalAlign=top;childLayout=stackLayout;horizontal=1;startSize=26;horizontalStack=0;resizeParent=1;resizeParentMax=0;resizeLast=0;collapsible=1;marginBottom=0;whiteSpace=wrap;html=1;" vertex="1" parent="WIyWlLk6GJQsqaUBKTNV-1">
          <mxGeometry x="650" y="200" width="160" height="60" as="geometry" />
        </mxCell>
        <mxCell id="l8MkeI-6gAC6tX0D0pkb-11" value="" style="line;strokeWidth=1;fillColor=none;align=left;verticalAlign=middle;spacingTop=-1;spacingLeft=3;spacingRight=3;rotatable=0;labelPosition=right;points=[];portConstraint=eastwest;strokeColor=inherit;" vertex="1" parent="l8MkeI-6gAC6tX0D0pkb-9">
          <mxGeometry y="26" width="160" height="8" as="geometry" />
        </mxCell>
        <mxCell id="l8MkeI-6gAC6tX0D0pkb-12" value="# startAttachSystemBoot()" style="text;strokeColor=none;fillColor=none;align=left;verticalAlign=top;spacingLeft=4;spacingRight=4;overflow=hidden;rotatable=0;points=[[0,0.5],[1,0.5]];portConstraint=eastwest;whiteSpace=wrap;html=1;" vertex="1" parent="l8MkeI-6gAC6tX0D0pkb-9">
          <mxGeometry y="34" width="160" height="26" as="geometry" />
        </mxCell>
        <mxCell id="l8MkeI-6gAC6tX0D0pkb-16" value="XhsApplication" style="swimlane;fontStyle=1;align=center;verticalAlign=top;childLayout=stackLayout;horizontal=1;startSize=26;horizontalStack=0;resizeParent=1;resizeParentMax=0;resizeLast=0;collapsible=1;marginBottom=0;whiteSpace=wrap;html=1;" vertex="1" parent="WIyWlLk6GJQsqaUBKTNV-1">
          <mxGeometry x="285" y="340" width="170" height="60" as="geometry" />
        </mxCell>
        <mxCell id="l8MkeI-6gAC6tX0D0pkb-17" value="" style="line;strokeWidth=1;fillColor=none;align=left;verticalAlign=middle;spacingTop=-1;spacingLeft=3;spacingRight=3;rotatable=0;labelPosition=right;points=[];portConstraint=eastwest;strokeColor=inherit;" vertex="1" parent="l8MkeI-6gAC6tX0D0pkb-16">
          <mxGeometry y="26" width="170" height="8" as="geometry" />
        </mxCell>
        <mxCell id="l8MkeI-6gAC6tX0D0pkb-18" value="#attachBaseContextControl()" style="text;strokeColor=none;fillColor=none;align=left;verticalAlign=top;spacingLeft=4;spacingRight=4;overflow=hidden;rotatable=0;points=[[0,0.5],[1,0.5]];portConstraint=eastwest;whiteSpace=wrap;html=1;" vertex="1" parent="l8MkeI-6gAC6tX0D0pkb-16">
          <mxGeometry y="34" width="170" height="26" as="geometry" />
        </mxCell>
        <mxCell id="l8MkeI-6gAC6tX0D0pkb-20" value="&lt;span style=&quot;color: rgb(0, 0, 0); font-family: Helvetica; font-size: 11px; font-style: normal; font-variant-ligatures: normal; font-variant-caps: normal; font-weight: 400; letter-spacing: normal; orphans: 2; text-align: center; text-indent: 0px; text-transform: none; widows: 2; word-spacing: 0px; -webkit-text-stroke-width: 0px; background-color: rgb(255, 255, 255); text-decoration-thickness: initial; text-decoration-style: initial; text-decoration-color: initial; float: none; display: inline !important;&quot;&gt;attachSystemExp==false&lt;/span&gt;" style="text;whiteSpace=wrap;html=1;" vertex="1" parent="WIyWlLk6GJQsqaUBKTNV-1">
          <mxGeometry x="370" y="290" width="150" height="40" as="geometry" />
        </mxCell>
        <mxCell id="l8MkeI-6gAC6tX0D0pkb-21" value="name" style="endArrow=block;endFill=1;html=1;edgeStyle=orthogonalEdgeStyle;align=left;verticalAlign=top;rounded=0;entryX=0.003;entryY=0.438;entryDx=0;entryDy=0;entryPerimeter=0;" edge="1" parent="WIyWlLk6GJQsqaUBKTNV-1" target="l8MkeI-6gAC6tX0D0pkb-26">
          <mxGeometry x="-1" relative="1" as="geometry">
            <mxPoint x="460" y="369.22" as="sourcePoint" />
            <mxPoint x="630" y="370" as="targetPoint" />
          </mxGeometry>
        </mxCell>
        <mxCell id="l8MkeI-6gAC6tX0D0pkb-22" value="1" style="edgeLabel;resizable=0;html=1;align=left;verticalAlign=bottom;" connectable="0" vertex="1" parent="l8MkeI-6gAC6tX0D0pkb-21">
          <mxGeometry x="-1" relative="1" as="geometry" />
        </mxCell>
        <mxCell id="l8MkeI-6gAC6tX0D0pkb-32" value="" style="edgeStyle=orthogonalEdgeStyle;rounded=0;orthogonalLoop=1;jettySize=auto;html=1;" edge="1" parent="WIyWlLk6GJQsqaUBKTNV-1" source="l8MkeI-6gAC6tX0D0pkb-25" target="l8MkeI-6gAC6tX0D0pkb-29">
          <mxGeometry relative="1" as="geometry" />
        </mxCell>
        <mxCell id="l8MkeI-6gAC6tX0D0pkb-25" value="CostTrackHelper" style="swimlane;fontStyle=1;align=center;verticalAlign=top;childLayout=stackLayout;horizontal=1;startSize=26;horizontalStack=0;resizeParent=1;resizeParentMax=0;resizeLast=0;collapsible=1;marginBottom=0;whiteSpace=wrap;html=1;" vertex="1" parent="WIyWlLk6GJQsqaUBKTNV-1">
          <mxGeometry x="640" y="340" width="180" height="60" as="geometry" />
        </mxCell>
        <mxCell id="l8MkeI-6gAC6tX0D0pkb-26" value="" style="line;strokeWidth=1;fillColor=none;align=left;verticalAlign=middle;spacingTop=-1;spacingLeft=3;spacingRight=3;rotatable=0;labelPosition=right;points=[];portConstraint=eastwest;strokeColor=inherit;" vertex="1" parent="l8MkeI-6gAC6tX0D0pkb-25">
          <mxGeometry y="26" width="180" height="8" as="geometry" />
        </mxCell>
        <mxCell id="l8MkeI-6gAC6tX0D0pkb-27" value="# setStageById(...,POINT_1)" style="text;strokeColor=none;fillColor=none;align=left;verticalAlign=top;spacingLeft=4;spacingRight=4;overflow=hidden;rotatable=0;points=[[0,0.5],[1,0.5]];portConstraint=eastwest;whiteSpace=wrap;html=1;" vertex="1" parent="l8MkeI-6gAC6tX0D0pkb-25">
          <mxGeometry y="34" width="180" height="26" as="geometry" />
        </mxCell>
        <mxCell id="l8MkeI-6gAC6tX0D0pkb-29" value="CostTracker" style="swimlane;fontStyle=1;align=center;verticalAlign=top;childLayout=stackLayout;horizontal=1;startSize=26;horizontalStack=0;resizeParent=1;resizeParentMax=0;resizeLast=0;collapsible=1;marginBottom=0;whiteSpace=wrap;html=1;" vertex="1" parent="WIyWlLk6GJQsqaUBKTNV-1">
          <mxGeometry x="641" y="480" width="180" height="140" as="geometry" />
        </mxCell>
        <mxCell id="l8MkeI-6gAC6tX0D0pkb-30" value="" style="line;strokeWidth=1;fillColor=none;align=left;verticalAlign=middle;spacingTop=-1;spacingLeft=3;spacingRight=3;rotatable=0;labelPosition=right;points=[];portConstraint=eastwest;strokeColor=inherit;" vertex="1" parent="l8MkeI-6gAC6tX0D0pkb-29">
          <mxGeometry y="26" width="180" height="8" as="geometry" />
        </mxCell>
        <mxCell id="l8MkeI-6gAC6tX0D0pkb-31" value="# setStaged()&lt;br&gt;----------------&amp;gt;&lt;br&gt;# end()&lt;br&gt;----------------&amp;gt;&lt;br&gt;# abstract finish():具体实现在FirstImagesLoadTracker类" style="text;strokeColor=none;fillColor=none;align=left;verticalAlign=top;spacingLeft=4;spacingRight=4;overflow=hidden;rotatable=0;points=[[0,0.5],[1,0.5]];portConstraint=eastwest;whiteSpace=wrap;html=1;" vertex="1" parent="l8MkeI-6gAC6tX0D0pkb-29">
          <mxGeometry y="34" width="180" height="106" as="geometry" />
        </mxCell>
        <mxCell id="l8MkeI-6gAC6tX0D0pkb-42" value="FirstScreenImagesLoadTracker" style="swimlane;fontStyle=1;align=center;verticalAlign=top;childLayout=stackLayout;horizontal=1;startSize=26;horizontalStack=0;resizeParent=1;resizeParentMax=0;resizeLast=0;collapsible=1;marginBottom=0;whiteSpace=wrap;html=1;" vertex="1" parent="WIyWlLk6GJQsqaUBKTNV-1">
          <mxGeometry x="290" y="500" width="191" height="100" as="geometry" />
        </mxCell>
        <mxCell id="l8MkeI-6gAC6tX0D0pkb-43" value="" style="line;strokeWidth=1;fillColor=none;align=left;verticalAlign=middle;spacingTop=-1;spacingLeft=3;spacingRight=3;rotatable=0;labelPosition=right;points=[];portConstraint=eastwest;strokeColor=inherit;" vertex="1" parent="l8MkeI-6gAC6tX0D0pkb-42">
          <mxGeometry y="26" width="191" height="8" as="geometry" />
        </mxCell>
        <mxCell id="l8MkeI-6gAC6tX0D0pkb-44" value="# finish():具体实现并且做计算耗时和点位上报，这是首刷的实现类还有其他实现类" style="text;strokeColor=none;fillColor=none;align=left;verticalAlign=top;spacingLeft=4;spacingRight=4;overflow=hidden;rotatable=0;points=[[0,0.5],[1,0.5]];portConstraint=eastwest;whiteSpace=wrap;html=1;" vertex="1" parent="l8MkeI-6gAC6tX0D0pkb-42">
          <mxGeometry y="34" width="191" height="66" as="geometry" />
        </mxCell>
        <mxCell id="l8MkeI-6gAC6tX0D0pkb-46" value="name" style="endArrow=block;endFill=1;html=1;edgeStyle=orthogonalEdgeStyle;align=left;verticalAlign=top;rounded=0;" edge="1" parent="WIyWlLk6GJQsqaUBKTNV-1">
          <mxGeometry x="-1" relative="1" as="geometry">
            <mxPoint x="640" y="549.5" as="sourcePoint" />
            <mxPoint x="480" y="549.5" as="targetPoint" />
          </mxGeometry>
        </mxCell>
        <mxCell id="l8MkeI-6gAC6tX0D0pkb-47" value="1" style="edgeLabel;resizable=0;html=1;align=left;verticalAlign=bottom;" connectable="0" vertex="1" parent="l8MkeI-6gAC6tX0D0pkb-46">
          <mxGeometry x="-1" relative="1" as="geometry" />
        </mxCell>
      </root>
    </mxGraphModel>
  </diagram>
</mxfile>
